<svg width="20" height="20" viewBox="0 0 20 20" fill="none" xmlns="http://www.w3.org/2000/svg">
<circle cx="10" cy="10" r="9.75" fill="white" stroke="#6B7280" stroke-width="0.5"/>
<path d="M14.6667 15.25V14.0833C14.6667 13.4645 14.4208 12.871 13.9832 12.4334C13.5457 11.9958 12.9522 11.75 12.3333 11.75H7.66666C7.04782 11.75 6.45433 11.9958 6.01675 12.4334C5.57916 12.871 5.33333 13.4645 5.33333 14.0833V15.25" stroke="#6B7280" stroke-width="0.5" stroke-linecap="round" stroke-linejoin="round"/>
<path d="M10 9.41667C11.2887 9.41667 12.3333 8.372 12.3333 7.08333C12.3333 5.79467 11.2887 4.75 10 4.75C8.71134 4.75 7.66667 5.79467 7.66667 7.08333C7.66667 8.372 8.71134 9.41667 10 9.41667Z" stroke="#6B7280" stroke-width="0.5" stroke-linecap="round" stroke-linejoin="round"/>
</svg>
